<?xml version="1.0" encoding="utf-8" ?>
<svg baseProfile="full" height="100%" version="1.1" viewBox="0,0,1000,120" width="100%" xmlns="http://www.w3.org/2000/svg" xmlns:ev="http://www.w3.org/2001/xml-events" xmlns:xlink="http://www.w3.org/1999/xlink"><defs /><rect fill="white" height="120" width="1000" x="0" y="0" /><path d="M0,0 M406.7185974121094,58.61952590942383 L406.60516357421875,58.343170166015625 L406.2908935546875,57.92372512817383 L405.6846618652344,57.46628189086914 L404.74981689453125,57.1580696105957 L403.5182189941406,57.12031555175781 L402.0881652832031,57.469852447509766 L400.60107421875,58.276485443115234 L399.1839904785156,59.561038970947266 L397.9526062011719,61.261539459228516 L396.9941711425781,63.22244644165039 L396.38690185546875,65.24527740478516 L396.1739196777344,67.11177062988281 L396.3735046386719,68.65182495117188 L396.9441223144531,69.74760437011719 L397.8218688964844,70.32344055175781 L398.9390869140625,70.3173599243164 L400.2484436035156,69.70698547363281 L401.68389892578125,68.4870834350586 L403.16607666015625,66.75221252441406 L404.59674072265625,64.67247009277344 L405.8710021972656,62.46586990356445 L406.9169921875,60.359291076660156 L407.7021789550781,58.549617767333984 L408.2386474609375,57.138248443603516 L408.53375244140625,56.18147277832031 L408.62567138671875,55.725101470947266 L408.54449462890625,55.818607330322266 L408.3143005371094,56.533348083496094 L407.96612548828125,57.910614013671875 L407.57965087890625,59.85942077636719 L407.210693359375,62.17230224609375 L406.9477844238281,64.57917022705078 L406.857421875,66.79336547851562 L406.9575500488281,68.58708953857422 L407.2702331542969,69.82604217529297 L407.8266296386719,70.4245834350586 L408.6320495605469,70.35164642333984 L409.68011474609375,69.61065673828125 L410.9019775390625,68.26203918457031 L412.18609619140625,66.446044921875 L413.42572021484375,64.3833236694336 L414.5224304199219,62.3146858215332 L415.4132995605469,60.480323791503906 L416.0789794921875,59.02241134643555 L416.51177978515625,58.00730514526367 L416.7322692871094,57.47026062011719 L416.756591796875,57.449737548828125 L416.6110534667969,58.00458908081055 L416.3187255859375,59.208702087402344 L415.930419921875,60.99843978881836 L415.495849609375,63.15629577636719 L415.0820007324219,65.34557342529297 L414.7257080078125,67.2248764038086 L414.454833984375,68.57303619384766 L414.2697448730469,69.32606506347656 L414.1871643066406,69.49272155761719 L414.224609375,69.10658264160156 L414.4261169433594,68.1685562133789 L414.80731201171875,66.71656799316406 L415.35308837890625,64.87488555908203 L416.0293884277344,62.85839080810547 L416.81439208984375,60.923824310302734 L417.677734375,59.296051025390625 L418.598876953125,58.09819030761719 L419.5474853515625,57.369415283203125 L420.49212646484375,57.06637954711914 L421.4262390136719,57.093238830566406 L422.39691162109375,57.32166290283203 L423.4296875,57.57575607299805 L424.53363037109375,57.656368255615234 L425.688720703125,57.39059066772461 L426.856689453125,56.662086486816406 L428.0023193359375,55.44160842895508 L429.1298828125,53.820770263671875 L430.1981201171875,51.95003128051758 L431.156982421875,50.032649993896484 L431.9373779296875,48.27705764770508 L432.50262451171875,46.85340881347656 L432.85760498046875,45.8256950378418 L433.0428161621094,45.21064758300781 L433.0707092285156,45.0 L432.9564208984375,45.25055694580078 L432.68963623046875,46.064292907714844 L432.286865234375,47.560272216796875 L431.78228759765625,49.73154067993164 L431.21014404296875,52.47053527832031 L430.59710693359375,55.588748931884766 L429.9844970703125,58.86933135986328 L429.4183044433594,62.09934616088867 L428.95501708984375,65.07854461669922 L428.61279296875,67.597900390625 L428.4092102050781,69.41964721679688 L428.32977294921875,70.40679168701172 L428.3558044433594,70.57048034667969 L428.4301452636719,70.2759780883789 L428.5102844238281,69.88309478759766 M431.43768310546875,59.90726852416992 L431.437744140625,59.67399597167969 L431.3656005859375,59.43479537963867 L431.19012451171875,59.32136154174805 L430.89434814453125,59.44719696044922 L430.51239013671875,59.75098419189453 L430.11077880859375,60.15024185180664 L429.7431640625,60.526344299316406 L429.4654846191406,60.81972885131836 L429.3313903808594,61.002357482910156 L429.30706787109375,61.07957458496094 L429.33905029296875,61.090248107910156 M437.0414733886719,57.61717987060547 L437.01507568359375,57.78535461425781 L436.9075012207031,58.304500579833984 L436.696044921875,59.33234405517578 L436.3907470703125,60.896270751953125 L436.03155517578125,62.87383270263672 L435.65594482421875,65.03813171386719 L435.2801513671875,67.13960266113281 L434.9517822265625,68.90383911132812 L434.72357177734375,70.10398864746094 L434.6446228027344,70.62069702148438 L434.6703796386719,70.64767456054688 L434.74249267578125,70.45171356201172 M439.6778564453125,48.69243240356445 L439.87481689453125,48.18654251098633 L440.15899658203125,47.53285217285156 L440.4327697753906,46.94768524169922 L440.5986022949219,46.64739227294922 M452.01055908203125,48.61621856689453 L451.9061279296875,48.08805465698242 L451.62237548828125,47.31003189086914 L451.1037292480469,46.474220275878906 L450.3552551269531,45.90020751953125 L449.4307556152344,45.74199676513672 L448.4117126464844,46.13168716430664 L447.3861999511719,47.12643814086914 L446.4107666015625,48.7676887512207 L445.5364990234375,51.0161018371582 L444.7878723144531,53.76494598388672 L444.17425537109375,56.85893249511719 L443.70269775390625,60.13271713256836 L443.36090087890625,63.41096878051758 L443.11590576171875,66.52506256103516 L442.94061279296875,69.29741668701172 L442.8042907714844,71.46063995361328 L442.7078857421875,72.79478454589844 L442.6646728515625,73.22943115234375 L442.6607971191406,73.08304595947266 L442.6761474609375,72.73672485351562 M444.7583312988281,59.33757400512695 L444.7019958496094,59.34550857543945 L444.5367126464844,59.41208267211914 L444.2281799316406,59.55428695678711 L443.7737731933594,59.75736618041992 L443.21820068359375,59.96236038208008 L442.6406555175781,60.13106918334961 L442.1903381347656,60.24183654785156 L441.91748046875,60.29814529418945 M453.3072509765625,57.00155258178711 L453.3486633300781,57.089664459228516 L453.3284912109375,57.410255432128906 L453.19677734375,58.138671875 L452.9184875488281,59.38373565673828 L452.5356750488281,61.138519287109375 L452.12164306640625,63.26204299926758 L451.70501708984375,65.51889038085938 L451.33294677734375,67.62837219238281 L451.0591125488281,69.34454345703125 L450.9158020019531,70.50193786621094 L450.87982177734375,71.10610961914062 L450.91180419921875,71.30865478515625 M456.56085205078125,48.95747375488281 L456.5806884765625,48.97785949707031 L456.5594177246094,49.10299301147461 L456.5105285644531,49.27918243408203 L456.447509765625,49.452735900878906 M464.8655700683594,56.09827423095703 L464.7112121582031,55.78278350830078 L464.31353759765625,55.34695816040039 L463.617431640625,54.975929260253906 L462.65740966796875,54.93367004394531 L461.53094482421875,55.34175491333008 L460.3594665527344,56.22344207763672 L459.28033447265625,57.501407623291016 L458.355224609375,59.05250549316406 L457.66522216796875,60.77112579345703 L457.2623291015625,62.559749603271484 L457.193359375,64.32965850830078 L457.461181640625,65.97164916992188 L458.0704040527344,67.38043975830078 L458.9669189453125,68.44420623779297 L460.103759765625,69.08988189697266 L461.4242248535156,69.27291107177734 L462.8849792480469,68.97222900390625 L464.3888854980469,68.16797637939453 L465.86767578125,66.90601348876953 L467.26165771484375,65.2978286743164 L468.5207824707031,63.502628326416016 L469.644775390625,61.693336486816406 L470.6146240234375,60.013023376464844 L471.37255859375,58.560279846191406 L471.8875732421875,57.42725372314453 L472.1578674316406,56.70726013183594 L472.19439697265625,56.47317886352539 L472.0677185058594,56.7728271484375 L471.8210754394531,57.61933517456055 L471.4855041503906,58.97138595581055 L471.0988464355469,60.729209899902344 L470.7064208984375,62.71736526489258 L470.3335876464844,64.7020492553711 L470.0205078125,66.44279479980469 L469.7793273925781,67.78578186035156 L469.64898681640625,68.61009979248047 L469.662841796875,68.91203308105469 L469.8479309082031,68.75835418701172 L470.0924987792969,68.41051483154297 L470.30413818359375,68.0796890258789 M474.1021423339844,48.41978073120117 L474.1395568847656,48.453250885009766 L474.198974609375,48.54778289794922 L474.25927734375,48.666202545166016 L474.2994079589844,48.77132797241211 M483.9704284667969,58.95624923706055 L483.9727783203125,58.735252380371094 L483.84619140625,58.336158752441406 L483.4810791015625,57.80422592163086 L482.79730224609375,57.27350616455078 L481.8187255859375,56.878787994384766 L480.6407470703125,56.741546630859375 L479.3849182128906,56.93164825439453 L478.1465148925781,57.469764709472656 L477.00311279296875,58.33613967895508 L476.0191650390625,59.49580764770508 L475.28057861328125,60.925872802734375 L474.8681945800781,62.56217956542969 L474.8213806152344,64.28060150146484 L475.1205139160156,65.90859985351562 L475.7109375,67.23320770263672 L476.5345153808594,68.08470153808594 L477.5448913574219,68.35830688476562 L478.6897888183594,68.02010345458984 L479.8890380859375,67.10358428955078 L481.04864501953125,65.72053527832031 L482.0952453613281,64.02146911621094 L482.97784423828125,62.218021392822266 L483.6734924316406,60.52206039428711 L484.1877746582031,59.127559661865234 L484.53399658203125,58.13898849487305 L484.725830078125,57.590694427490234 L484.76953125,57.46099090576172 L484.66351318359375,57.74940872192383 L484.4226989746094,58.49507522583008 L484.0914306640625,59.73096466064453 L483.76055908203125,61.380611419677734 L483.52874755859375,63.27849578857422 L483.46649169921875,65.17559814453125 L483.6000671386719,66.84185791015625 L483.92266845703125,68.1242446899414 L484.4188232421875,68.9414291381836 L485.0959167480469,69.24169921875 L485.9748229980469,69.02418518066406 L487.0541076660156,68.29261016845703 L488.28472900390625,67.08989715576172 L489.609130859375,65.49102020263672 L490.96270751953125,63.58498764038086 L492.2861633300781,61.44511032104492 L493.54132080078125,59.156211853027344 L494.6817626953125,56.78541946411133 L495.6662292480469,54.42282485961914 L496.47613525390625,52.1823616027832 L497.0782470703125,50.17744827270508 L497.4588623046875,48.5046501159668 L497.62200927734375,47.24724197387695 L497.56561279296875,46.44568634033203 L497.310302734375,46.1546516418457 L496.8646240234375,46.440834045410156 L496.2244567871094,47.3616943359375 L495.4259033203125,48.9185791015625 L494.5346984863281,51.034542083740234 L493.64129638671875,53.5396842956543 L492.8614807128906,56.24251937866211 L492.2908630371094,58.953006744384766 L491.98773193359375,61.509849548339844 L491.99481201171875,63.775299072265625 L492.3015441894531,65.64180755615234 L492.8751220703125,67.0584945678711 L493.7231140136719,67.98806762695312 L494.802490234375,68.44190216064453 L496.02423095703125,68.4725570678711 L497.0775451660156,68.28752899169922 L497.767578125,68.06449890136719 M513.9457397460938,57.9213981628418 L513.9439697265625,57.865684509277344 L513.8705444335938,57.88924789428711 L513.6710815429688,58.150909423828125 L513.31396484375,58.84134292602539 L512.8471069335938,60.07126998901367 L512.3441162109375,61.82550048828125 L511.8945617675781,63.95907211303711 L511.54669189453125,66.2188720703125 L511.30804443359375,68.28968048095703 L511.16302490234375,69.91759490966797 L511.0921630859375,70.93797302246094 L511.06524658203125,71.40840911865234 M515.3423461914062,48.58305358886719 L515.3983764648438,48.43268585205078 L515.484375,48.27781677246094 L515.5701904296875,48.16508483886719 L515.62548828125,48.14112091064453 M519.3079223632812,56.851314544677734 L519.1834716796875,57.2535285949707 L518.9346923828125,58.100013732910156 L518.572998046875,59.45370864868164 L518.1361083984375,61.21634292602539 L517.6467895507812,63.24542999267578 L517.149658203125,65.32484436035156 L516.6646728515625,67.19734954833984 L516.2177734375,68.658935546875 L515.8674926757812,69.58526611328125 L515.6572265625,69.93988037109375 L515.625244140625,69.74213409423828 L515.8521118164062,68.9999008178711 L516.367431640625,67.71375274658203 L517.1514282226562,65.9603271484375 L518.1528930664062,63.913204193115234 L519.3048706054688,61.818153381347656 L520.5088500976562,59.912391662597656 L521.7308349609375,58.380271911621094 L522.91259765625,57.32649230957031 L523.9859619140625,56.7967643737793 L524.8825073242188,56.83603286743164 L525.5670166015625,57.47325897216797 L526.000732421875,58.68227005004883 L526.2164916992188,60.39065933227539 L526.2500610351562,62.43597412109375 L526.15673828125,64.59014892578125 L525.9791259765625,66.64092254638672 L525.7977294921875,68.34900665283203 L525.6873779296875,69.51602172851562 L525.71630859375,70.06166076660156 L525.8302001953125,70.151123046875 L525.962158203125,70.0186767578125 M535.6856689453125,47.731048583984375 L535.845458984375,47.502662658691406 L535.9996337890625,47.390830993652344 L536.0501708984375,47.64804458618164 L535.8908081054688,48.529624938964844 L535.5372314453125,50.04600143432617 L535.0176391601562,52.11139678955078 L534.4088134765625,54.550621032714844 L533.748779296875,57.1922492980957 L533.09619140625,59.85504913330078 L532.5022583007812,62.386314392089844 L532.010009765625,64.6500473022461 L531.6448364257812,66.48270416259766 L531.4197998046875,67.73936462402344 L531.3037109375,68.35492706298828 L531.2596435546875,68.4967041015625 L531.2501831054688,68.4019775390625 M531.6163330078125,58.92229461669922 L531.625244140625,58.9018669128418 L531.7102661132812,58.931331634521484 L531.9564208984375,59.07978057861328 L532.4595947265625,59.39230728149414 L533.2781372070312,59.85514450073242 L534.447998046875,60.39942932128906 L535.926025390625,60.909420013427734 L537.6322021484375,61.2729606628418 L539.46728515625,61.40937042236328 L541.3280639648438,61.26325225830078 L543.1045532226562,60.82353210449219 L544.7081298828125,60.11187744140625 L546.019287109375,59.1768684387207 L546.9606323242188,58.09371566772461 L547.4954223632812,56.979434967041016 L547.630615234375,55.95545959472656 L547.3975219726562,55.14535140991211 L546.84912109375,54.6458740234375 L546.0198974609375,54.53290557861328 L544.9737548828125,54.85407257080078 L543.7931518554688,55.63337326049805 L542.5978393554688,56.83619689941406 L541.5204467773438,58.39598846435547 L540.6869506835938,60.18205642700195 L540.19140625,62.05462646484375 L540.078369140625,63.86204147338867 L540.3477783203125,65.46790313720703 L540.9829711914062,66.74246978759766 L541.95263671875,67.60304260253906 L543.208740234375,67.97750854492188 L544.693603515625,67.8479995727539 L546.318603515625,67.20840454101562 L547.9898071289062,66.08169555664062 L549.6189575195312,64.5042724609375 L551.1427612304688,62.530357360839844 L552.5446166992188,60.235313415527344 L553.8065795898438,57.736610412597656 L554.9112548828125,55.180267333984375 L555.822998046875,52.74884033203125 L556.4638061523438,50.64055633544922 L556.8104248046875,48.98265838623047 L556.90087890625,47.86167907714844 L556.764892578125,47.314876556396484 L556.4363403320312,47.37214279174805 L555.9266357421875,48.089256286621094 L555.196533203125,49.53500747680664 L554.303466796875,51.659637451171875 L553.3372802734375,54.328514099121094 L552.4063720703125,57.310184478759766 L551.6259765625,60.331443786621094 L551.1155395507812,63.14413070678711 L550.9481201171875,65.5627670288086 L551.1915893554688,67.42733001708984 L551.8702392578125,68.6465835571289 L552.958984375,69.16655731201172 L554.3899536132812,68.95916748046875 L556.0857543945312,68.03925323486328 L557.9386596679688,66.46955108642578 L559.81640625,64.36422729492188 L561.61767578125,61.9011116027832 L563.242919921875,59.26718521118164 L564.6170043945312,56.63258361816406 L565.7071533203125,54.1715202331543 L566.5,52.0279426574707 L566.97607421875,50.311981201171875 L567.1434326171875,49.11016082763672 L566.990478515625,48.458038330078125 L566.5077514648438,48.370887756347656 L565.7205810546875,48.90006637573242 L564.68603515625,50.086334228515625 L563.4805908203125,51.903961181640625 L562.215576171875,54.252418518066406 L561.0050048828125,56.92677307128906 L559.966552734375,59.67042922973633 L559.2280883789062,62.243499755859375 L558.8829956054688,64.44564819335938 L558.9614868164062,66.12271881103516 L559.4542236328125,67.19640350341797 L560.3349609375,67.63230895996094 L561.5567016601562,67.4320068359375 L563.0491943359375,66.6297836303711 L564.701416015625,65.31109619140625 L566.372802734375,63.62294006347656 L567.9354858398438,61.76095199584961 L569.3009643554688,59.95092010498047 L570.4029541015625,58.395103454589844 L571.2013549804688,57.203121185302734 L571.6708984375,56.4356689453125 L571.8095092773438,56.12639236450195 L571.642822265625,56.28989791870117 L571.212158203125,56.98465347290039 L570.568603515625,58.25075912475586 L569.8182373046875,60.00175476074219 L569.081298828125,62.049415588378906 L568.4732055664062,64.12127685546875 L568.0864868164062,65.92481231689453 L567.9189453125,67.28245544433594 L567.9137573242188,68.1514892578125 L568.06396484375,68.47261810302734 L568.3631591796875,68.25558471679688 L568.8167114257812,67.53839874267578 L569.2828979492188,66.68994140625 L569.6322631835938,66.00923156738281 M572.306640625,48.296363830566406 L572.3925170898438,48.23792266845703 L572.5159912109375,48.1911506652832 L572.634765625,48.168434143066406 L572.70654296875,48.182167053222656 M580.8181762695312,60.09967803955078 L580.8319091796875,59.61257553100586 L580.7618408203125,58.788944244384766 L580.5440673828125,57.76268768310547 L580.12353515625,56.826698303222656 L579.503173828125,56.20499038696289 L578.7169799804688,56.03923797607422 L577.7938232421875,56.360660552978516 L576.8067016601562,57.147029876708984 L575.8704833984375,58.30379104614258 L575.1109619140625,59.69822311401367 L574.6357421875,61.190887451171875 L574.4974365234375,62.60818862915039 L574.668212890625,63.800662994384766 L575.122314453125,64.6648178100586 L575.8078002929688,65.1249771118164 L576.683349609375,65.16356658935547 L577.6754760742188,64.79496002197266 L578.6793212890625,64.05181884765625 L579.5914916992188,63.02839279174805 L580.3533325195312,61.87699890136719 L580.9152221679688,60.76719665527344 L581.2946166992188,59.87020492553711 L581.5030517578125,59.263877868652344 L581.5682373046875,58.95103073120117 L581.5406494140625,58.91146469116211 L581.4629516601562,59.17881393432617 L581.3408203125,59.81693649291992 L581.201416015625,60.910762786865234 L581.0399169921875,62.4486198425293 L580.837158203125,64.36275482177734 L580.5824584960938,66.55567932128906 L580.2565307617188,68.95680236816406 L579.8374633789062,71.48078918457031 L579.3389282226562,74.02094268798828 L578.7791137695312,76.37989807128906 L578.1596069335938,78.35259246826172 L577.5079345703125,79.79959869384766 L576.840087890625,80.66139221191406 L576.1747436523438,80.95169067382812 L575.5433349609375,80.73306274414062 L574.9954833984375,80.07006072998047 L574.5777587890625,79.02975463867188 L574.3629760742188,77.713134765625 L574.40771484375,76.19986724853516 L574.7515258789062,74.5473403930664 L575.4124145507812,72.8021011352539 L576.4061889648438,71.02151489257812 L577.710693359375,69.25503540039062 L579.2818603515625,67.54209899902344 L581.062255859375,65.89569091796875 L582.9502563476562,64.2968978881836 L584.825927734375,62.73184585571289 L586.5729370117188,61.21377182006836 L588.0576782226562,59.76945877075195 L589.1870727539062,58.426063537597656 L589.9339599609375,57.232906341552734 L590.2998046875,56.24673080444336 L590.3161010742188,55.51799774169922 L590.0215454101562,55.09296798706055 L589.4287719726562,54.997032165527344 L588.587890625,55.249427795410156 L587.5928344726562,55.86952590942383 L586.5802612304688,56.86149597167969 L585.7000122070312,58.171749114990234 L585.0946655273438,59.704872131347656 L584.8466796875,61.31793975830078 L584.9801635742188,62.85904312133789 L585.4591674804688,64.18791198730469 L586.2015380859375,65.19151306152344 L587.1240234375,65.77772521972656 L588.1716918945312,65.88895416259766 L589.3092041015625,65.5074691772461 L590.496826171875,64.66358947753906 L591.6903686523438,63.43714904785156 L592.8101196289062,61.94865036010742 L593.8120727539062,60.342533111572266 L594.6632690429688,58.776268005371094 L595.3449096679688,57.394187927246094 L595.8507080078125,56.30598449707031 L596.1793212890625,55.575313568115234 L596.3099365234375,55.22492599487305 L596.2608642578125,55.27293014526367 L596.0560302734375,55.754459381103516 L595.7251586914062,56.682498931884766 L595.3089599609375,58.00212860107422 L594.861083984375,59.56745910644531 L594.4253540039062,61.1485481262207 L594.0498046875,62.516143798828125 L593.7637939453125,63.52242660522461 L593.5810546875,64.11263275146484 L593.5042724609375,64.28778839111328 L593.5682983398438,64.07067108154297 L593.810302734375,63.448524475097656 L594.26708984375,62.42567825317383 L594.935302734375,61.07712173461914 L595.798828125,59.55247116088867 L596.8070678710938,58.03868865966797 L597.9064331054688,56.72181701660156 L599.0355834960938,55.71295166015625 L600.1445922851562,55.07066345214844 L601.1629028320312,54.79920959472656 L602.05126953125,54.8929443359375 L602.7679443359375,55.337730407714844 L603.2706298828125,56.121986389160156 L603.5269775390625,57.2003059387207 L603.5460205078125,58.50196838378906 L603.3456420898438,59.90510559082031 L602.998046875,61.294376373291016 L602.5929565429688,62.55949401855469 L602.2099609375,63.60905075073242 L601.8976440429688,64.39833068847656 L601.718017578125,64.89517974853516 L601.6876220703125,65.09761047363281 L601.8125610351562,65.04718780517578 L601.9989013671875,64.88420104980469 L602.1637573242188,64.71711730957031 M613.4632568359375,55.974369049072266 L613.3093872070312,55.71120071411133 L612.9315185546875,55.31605529785156 L612.28564453125,54.91572570800781 L611.3967895507812,54.71308898925781 L610.3394165039062,54.83640670776367 L609.207275390625,55.35026931762695 L608.0961303710938,56.23186492919922 L607.1016845703125,57.40180587768555 L606.345458984375,58.75941848754883 L605.9354248046875,60.19613265991211 L605.9334106445312,61.61408615112305 L606.3369140625,62.91948318481445 L607.1057739257812,64.01985168457031 L608.1688842773438,64.82916259765625 L609.4657592773438,65.28378295898438 L610.9550170898438,65.3604965209961 L612.5806884765625,65.06111145019531 L614.26806640625,64.4100112915039 L615.9368896484375,63.44345474243164 L617.5009765625,62.208580017089844 L618.8720092773438,60.78327560424805 L619.98681640625,59.27837371826172 L620.806396484375,57.81703186035156 L621.3136596679688,56.50844192504883 L621.5089111328125,55.42499542236328 L621.4194946289062,54.59115219116211 L621.04833984375,54.02870178222656 L620.42236328125,53.78611755371094 L619.5764770507812,53.9146614074707 L618.5712280273438,54.4543342590332 L617.4859619140625,55.40232849121094 L616.43896484375,56.6854133605957 L615.53076171875,58.18611145019531 L614.8916015625,59.78962326049805 L614.5958251953125,61.35032272338867 L614.689697265625,62.74557113647461 L615.171630859375,63.87175369262695 L616.0140380859375,64.65381622314453 L617.14208984375,65.052978515625 L618.5341186523438,65.01398468017578 L620.1630249023438,64.46410369873047 L621.6007690429688,63.737064361572266 L622.5927124023438,63.10441207885742 " fill="none" stroke="#000000" stroke-linecap="round" stroke-width="2" /></svg>